<svg width="48" height="48" viewBox="0 0 48 48" fill="none" xmlns="http://www.w3.org/2000/svg">
<g clip-path="url(#clip0_3760_4026)">
<path d="M0 4C0 1.79086 1.79086 0 4 0H44C46.2091 0 48 1.79086 48 4V44C48 46.2091 46.2091 48 44 48H16C7.16344 48 0 40.8366 0 32V4Z" fill="#18171B"/>
<path d="M23.086 7.72022C23.086 6.79471 24.1173 6.24273 24.8872 6.75619L41.0846 17.5592C41.735 17.9929 41.778 18.9332 41.1699 19.4245L26.889 30.9649C26.6168 31.1849 26.4624 31.5164 26.4449 31.866C26.3843 33.0802 26.1226 34.2274 25.6598 35.3076C25.1865 36.4913 24.506 37.5566 23.6185 38.5035C22.731 39.3913 21.6659 40.1015 20.4234 40.6341C19.24 41.1668 17.9383 41.4331 16.5182 41.4331C15.0982 41.4331 13.7669 41.1668 12.5244 40.6341C11.341 40.1015 10.2759 39.3913 9.32924 38.5035C8.44171 37.5566 7.73169 36.4913 7.19917 35.3076C6.66665 34.0647 6.40039 32.7331 6.40039 31.3127C6.40039 29.8923 6.66665 28.5903 7.19917 27.4066C7.73169 26.1637 8.44171 25.0984 9.32924 24.2107C10.2759 23.2638 11.341 22.524 12.5244 21.9913C13.7669 21.4587 15.0982 21.1923 16.5182 21.1923C17.9383 21.1923 19.2104 21.4882 20.3346 22.0801C20.4781 22.1556 20.6182 22.2326 20.7549 22.311C21.6697 22.8357 23.086 22.213 23.086 21.1582V7.72022Z" fill="url(#paint0_linear_3760_4026)"/>
<path d="M36.2781 17.5586C36.9281 17.9924 36.9711 18.9321 36.3635 19.4235L28.1676 26.052C27.41 26.6647 26.2807 26.1254 26.2807 25.151V13.0528C26.2807 12.1271 27.3123 11.5752 28.0822 12.0889L36.2781 17.5586Z" fill="#18171B"/>
<path d="M23.3638 31.2283C23.3638 34.9948 20.3111 38.0481 16.5453 38.0481C12.7796 38.0481 9.72688 34.9948 9.72688 31.2283C9.72688 27.4619 12.7796 24.4086 16.5453 24.4086C20.3111 24.4086 23.3638 27.4619 23.3638 31.2283Z" fill="#18171B"/>
</g>
<defs>
<linearGradient id="paint0_linear_3760_4026" x1="41.6004" y1="6.55957" x2="6.606" y2="41.6303" gradientUnits="userSpaceOnUse">
<stop stop-color="#A855F7"/>
<stop offset="1" stop-color="#6041FF"/>
</linearGradient>
<clipPath id="clip0_3760_4026">
<rect width="48" height="48" fill="white"/>
</clipPath>
</defs>
</svg>
